#!OML:ASF I:\Actors\actors\Patient Classification 1\Patient 1\Session 1\Subject1.ASF
:FULLY-SPECIFIED
:DEGREES
246
root 1.08336 17.9178 10.1054 10.4266 1.30862 -7.35763
lowerback -2.89564 0.458865 6.04519
upperback -9.99932 0.911275 2.06277
thorax -8.9017 0.0680639 -1.22579
lowerneck -12.205 -2.24906 0.0287987
upperneck 35.2809 -4.94292 4.15644
head 14.2328 -1.58129 0.917524
rclavicle -2.76186e-014 3.74709e-014
rhumerus -9.93189 47.1665 -87.2779
rradius 116.681
rwrist -13.8104
rhand -14.9149 309.271
rfingers 7.12502
rthumb 11.2469 279.593
lclavicle -2.76186e-014 3.74709e-014
lhumerus -8.32327 -58.8238 82.3326
lradius 107.677
lwrist -8.05499
lhand -55.3919 -59.8132
lfingers 7.12502
lthumb -27.7549 328.158
rfemur -6.62083 20.5379 23.8661
rtibia 13.5067
rfoot -11.4947 -19.9555
rtoes -0.945262
lfemur -1.2102 -24.181 -9.66499
ltibia 4.19374
lfoot -6.89033 29.1051
ltoes -12.9679
247
root 1.07769 17.8451 10.1236 10.0839 1.30776 -7.53689
lowerback -2.8347 0.439965 6.30775
upperback -10.0731 0.898777 2.02584
thorax -9.02317 0.0345357 -1.40929
lowerneck -12.0655 -2.27963 0.0236323
upperneck 35.5592 -5.04011 4.24835
head 14.3371 -1.60883 0.945697
rclavicle 2.45251e-014 -6.16232e-015
rhumerus -13.7506 46.8248 -90.889
rradius 116.146
rwrist -13.7372
rhand -15.3646 310.309
rfingers 7.12502
rthumb 10.8131 280.607
lclavicle 2.45251e-014 -6.16232e-015
lhumerus -12.9967 -58.9027 86.6138
lradius 107.187
lwrist -8.41598
lhand -55.4879 -59.3697
lfingers 7.12502
lthumb -27.8467 328.587
rfemur -6.13309 20.4886 24.3829
rtibia 13.7332
rfoot -12.5774 -20.1151
rtoes -1.80205
lfemur -0.574453 -23.975 -9.71216
ltibia 4.10997
lfoot -7.91157 29.1061
ltoes -13.1051
248
root 1.07358 17.7598 10.1439 9.83639 1.25923 -7.76247
lowerback -3.3141 0.38899 6.44087
upperback -9.81824 0.785751 2.17474
thorax -8.4674 -0.00604127 -1.32057
lowerneck -12.2969 -2.25807 -0.145921
upperneck 35.5415 -5.01946 4.39181
head 14.3913 -1.60055 1.0344
rclavicle 1.31695e-015 -4.04527e-014
rhumerus -17.2162 46.4821 -94.2374
rradius 115.57
rwrist -13.2686
rhand -15.2633 310.806
rfingers 7.12502
rthumb 10.9108 281.11
lclavicle 1.31695e-015 -4.04527e-014
lhumerus -17.6742 -58.3245 91.0266
lradius 106.519
lwrist -9.41316
lhand -55.7617 -58.8782
lfingers 7.12502
lthumb -28.1084 329.035
rfemur -5.65728 20.5225 24.9271
rtibia 13.8604
rfoot -13.9535 -20.3457
rtoes -2.25154
lfemur 0.0107294 -23.9313 -9.72656
ltibia 3.99326
lfoot -9.06996 29.3847
ltoes -12.8166
249
root 1.06946 17.6635 10.1593 9.63288 1.20939 -7.98333
lowerback -3.68541 0.310362 6.53182
upperback -9.58511 0.646985 2.38366
thorax -8.00467 -0.0562984 -1.14682
lowerneck -12.68 -2.19296 -0.282013
upperneck 35.5248 -4.90075 4.41672
head 14.4711 -1.55868 1.08273
rclavicle -8.69683e-017 -1.00635e-014
rhumerus -20.8583 46.1075 -97.67
rradius 114.925
rwrist -12.6425
rhand -15.1802 311.244
rfingers 7.12502
rthumb 10.9909 281.552
lclavicle -8.69683e-017 -1.00635e-014
lhumerus -22.5993 -57.2287 95.6316
lradius 105.972
lwrist -9.795
lhand -55.3996 -59.0634
lfingers 7.12502
lthumb -27.7623 328.907
rfemur -5.23616 20.5721 25.4367
rtibia 13.9431
rfoot -15.4926 -20.6429
rtoes -2.7777
lfemur 0.434849 -23.863 -9.69528
ltibia 4.04207
lfoot -10.4046 29.7018
ltoes -12.1807
250
root 1.0656 17.5608 10.1713 9.50901 1.12699 -8.09201
lowerback -3.95272 0.424104 7.46432
upperback -9.45226 0.742761 1.85169
thorax -7.69989 -0.0900379 -2.22812
lowerneck -13.0717 -2.17272 -0.0055806
upperneck 35.4979 -5.11338 4.8369
head 14.5688 -1.54995 1.16808
rclavicle -7.87684e-015 -1.21259e-014
rhumerus -23.4009 45.8769 -100.691
rradius 113.947
rwrist -12.914
rhand -15.6297 311.082
rfingers 7.12502
rthumb 10.5573 281.367
lclavicle -7.87684e-015 -1.21259e-014
lhumerus -27.5994 -56.6623 99.4684
lradius 105.489
lwrist -9.97297
lhand -55.3677 -59.4967
lfingers 7.12502
lthumb -27.7318 328.478
rfemur -4.93355 20.5979 25.7473
rtibia 13.9954
rfoot -17.0055 -20.9529
rtoes -2.41836
lfemur 0.743259 -23.8767 -9.77862
ltibia 4.13951
lfoot -11.6638 30.0624
ltoes -11.528
251
root 1.06206 17.4619 10.1829 9.55946 0.952827 -7.95655
lowerback -4.02067 0.484483 7.30607
upperback -9.54699 0.818734 1.81211
thorax -7.75579 -0.0464904 -2.18311
lowerneck -13.5258 -2.19943 -0.170454
upperneck 35.5496 -5.21037 5.07855
head 14.717 -1.57074 1.2778
rclavicle -1.52567e-014 3.10104e-014
rhumerus -26.5902 45.3696 -103.221
rradius 113.144
rwrist -14.1235
rhand -16.2126 311.522
rfingers 7.12502
rthumb 9.99507 281.779
lclavicle -1.52567e-014 3.10104e-014
lhumerus -32.4697 -55.1279 103.812
lradius 104.788
lwrist -10.7394
lhand -56.0952 -59.8852
lfingers 7.12502
lthumb -28.4272 327.976
rfemur -4.8697 20.6079 25.637
rtibia 14.0966
rfoot -18.1979 -21.0797
rtoes -1.97768
lfemur 0.874557 -23.9999 -10.1129
ltibia 4.24151
lfoot -12.6838 30.5037
ltoes -11.1472
